
<svg width="25" height="25" viewBox="0 0 110 110" fill="none" xmlns="http://www.w3.org/2000/svg">
<mask id="mask0_1439_33150" style="mask-type:alpha" maskUnits="userSpaceOnUse" x="-20" y="-20" width="130" height="130">
<rect x="-20" y="-20" width="130" height="130" fill="#fff" />
</mask>
<g mask="url(#mask0_1439_33150)">
<path d="M44.9993 44.8645C39.041 44.8645 34.166 42.9687 30.3743 39.177C26.5827 35.3853 24.6868 30.5103 24.6868 24.552C24.6868 18.5937 26.5827 13.7187 30.3743 9.927C34.166 6.13534 39.041 4.2395 44.9993 4.2395C50.9577 4.2395 55.8327 6.13534 59.6243 9.927C63.416 13.7187 65.3118 18.5937 65.3118 24.552C65.3118 30.5103 63.416 35.3853 59.6243 39.177C55.8327 42.9687 50.9577 44.8645 44.9993 44.8645ZM1.66602 88.3333V75.6041C1.66602 72.1735 2.52365 69.2395 4.23893 66.802C5.95421 64.3645 8.16602 62.5138 10.8743 61.2499C16.923 58.5416 22.7233 56.5103 28.2754 55.1562C33.8275 53.802 39.4021 53.1249 44.9993 53.1249C50.5966 53.1249 56.1487 53.8246 61.6556 55.2239C67.1625 56.6232 72.9368 58.6406 78.9782 61.2762C81.804 62.5515 84.0695 64.4006 85.7748 66.8237C87.4801 69.2467 88.3327 72.1735 88.3327 75.6041V88.3333H1.66602ZM9.79102 80.2083H80.2077V75.6041C80.2077 74.1596 79.7789 72.7829 78.9212 71.4739C78.0636 70.1648 77.0028 69.1944 75.7389 68.5624C69.9612 65.7638 64.6799 63.8454 59.8952 62.8072C55.1105 61.769 50.1452 61.2499 44.9993 61.2499C39.8535 61.2499 34.8431 61.769 29.9681 62.8072C25.0931 63.8454 19.8118 65.7638 14.1243 68.5624C12.8605 69.1944 11.8223 70.1648 11.0098 71.4739C10.1973 72.7829 9.79102 74.1596 9.79102 75.6041V80.2083ZM44.9993 36.7395C48.5202 36.7395 51.4316 35.5885 53.7337 33.2864C56.0358 30.9843 57.1868 28.0728 57.1868 24.552C57.1868 21.0312 56.0358 18.1197 53.7337 15.8176C51.4316 13.5155 48.5202 12.3645 44.9993 12.3645C41.4785 12.3645 38.5671 13.5155 36.265 15.8176C33.9629 18.1197 32.8118 21.0312 32.8118 24.552C32.8118 28.0728 33.9629 30.9843 36.265 33.2864C38.5671 35.5885 41.4785 36.7395 44.9993 36.7395Z" fill="#fff"/>
</g>
</svg>
