<svg xmlns="http://www.w3.org/2000/svg" width="54" height="52" viewBox="0 0 54 52" fill="none">
<g clip-path="url(#clip0_45_5446)">
<path d="M25.1783 18.1011C26.2726 18.1011 27.322 17.669 28.0959 16.9C28.8699 16.131 29.304 15.088 29.304 14.0006C29.304 12.9131 28.8699 11.8701 28.0959 11.1011C27.322 10.3321 26.2726 9.90015 25.1783 9.90015C24.0839 9.90015 23.0346 10.3321 22.2606 11.1011C21.4867 11.8701 21.051 12.9131 21.051 14.0006C21.051 15.088 21.4867 16.131 22.2606 16.9C23.0346 17.669 24.0839 18.1011 25.1783 18.1011Z" fill="#FFCA05"/>
<path d="M33.3547 42.2895C31.5763 41.3092 29.8113 39.9562 29.6377 36.0767C29.6287 35.1651 29.5164 34.2574 29.3039 33.3706C28.2949 35.1624 26.7739 36.6176 24.9341 37.5539C25.5763 38.6912 26.3398 39.7559 27.2125 40.7293C29.0059 42.7105 31.3458 43.7598 32.9505 43.7598C33.3053 43.7529 33.6601 42.4552 33.3547 42.2895Z" fill="#FFCA05"/>
<path d="M28.7904 30.8027C28.7904 30.7336 28.7904 30.6647 28.7904 30.5956C28.7904 30.5265 28.7904 30.3747 28.7904 30.3747V25.5425C30.8249 26.7644 31.5 29.8777 32.0344 31.2859C32.0764 31.3964 32.3608 31.4653 32.6033 31.4653C32.8473 31.4653 33.0764 31.3894 33.1183 31.272C33.8129 29.0493 32.9791 20.8484 26.7335 19.737C25.9865 19.6291 25.2291 19.6013 24.4761 19.6542C21.8219 19.8958 21.1273 21.663 21.1063 22.8365V30.3885C21.1063 30.6006 21.1347 30.8121 21.1901 31.0166C19.6213 32.3935 18.3593 34.0818 17.488 35.9731C16.6542 37.7955 16.6123 42.7865 17.3279 44.0842C17.4327 44.2844 17.765 44.3052 18.0854 44.312C18.4042 44.319 18.8907 44.2361 18.9042 44.0981C19.1348 41.9167 19.28 38.8103 23.6767 36.7601C27.8458 34.834 28.6378 31.8934 28.7904 30.8027Z" fill="#FFCA05"/>
<path d="M17.1063 16.1751C17.3533 16.1751 17.5914 16.0778 17.7665 15.9046C17.9417 15.7314 18.042 15.496 18.0435 15.2501C18.0435 15.0029 17.9447 14.7659 17.7695 14.5911C17.5929 14.4163 17.3548 14.3181 17.1063 14.3181H11.006C10.8833 14.3172 10.7605 14.3407 10.6467 14.3872C10.533 14.4337 10.4282 14.5023 10.3414 14.589C10.2545 14.6758 10.1857 14.7789 10.1378 14.8924C10.0914 15.0059 10.0674 15.1274 10.0689 15.2501C10.0689 15.3721 10.0928 15.4929 10.1408 15.6057C10.1872 15.7183 10.256 15.8206 10.3443 15.9067C10.4312 15.9925 10.5345 16.0606 10.6482 16.1066C10.762 16.1527 10.8833 16.176 11.006 16.1751H17.1063Z" fill="#FFCA05"/>
<path d="M19.9611 23.0782C18.7635 23.4529 17.5374 23.7232 16.2934 23.8858L17.4386 17.4936C17.4536 17.4266 17.4536 17.357 17.4371 17.2903C17.4207 17.2236 17.3892 17.1615 17.3443 17.1089C17.3009 17.0562 17.244 17.0144 17.1811 16.9865C17.1183 16.9587 17.0494 16.9455 16.9805 16.9482H11.1317C11.0629 16.9455 10.994 16.9587 10.9311 16.9865C10.8667 17.0144 10.8114 17.0562 10.768 17.1089C10.723 17.1615 10.6916 17.2236 10.6751 17.2903C10.6587 17.357 10.6587 17.4266 10.6736 17.4936L11.8817 24.231V24.2862H11.1242C10.9506 24.2862 10.8742 24.6106 10.8742 24.942C10.8742 25.2734 10.9641 25.5287 11.1242 25.5978C13.1048 26.5159 19.9401 26.0603 19.9401 26.0603L19.9611 23.0782Z" fill="#FFCA05"/>
<path d="M47.2964 21.2765C45.4641 15.2223 41.2904 10.1375 35.6901 7.13764C30.0898 4.13781 23.521 3.46794 17.4252 5.27503C11.3249 7.09503 6.20211 11.248 3.18265 16.8208C0.161692 22.3937 -0.50598 28.9301 1.32336 34.9929C3.1557 41.0555 7.33685 46.1466 12.9461 49.1471C18.5554 52.1477 25.1332 52.8121 31.235 50.9943C37.3309 49.1688 42.4461 45.0127 45.4581 39.4399C48.4701 33.867 49.1303 27.3337 47.2964 21.2765ZM29.0883 47.1769C23.8458 48.7336 18.1961 48.1611 13.3788 45.5847C8.5599 43.0081 4.96708 38.6382 3.38624 33.4327C1.81738 28.2232 2.39222 22.6081 4.98504 17.8196C7.57785 13.0311 11.9776 9.46047 17.2171 7.89131C22.4596 6.33091 28.1123 6.90271 32.9327 9.48109C37.7515 12.0595 41.3443 16.4335 42.9192 21.6422C44.491 26.85 43.9162 32.4643 41.3249 37.252C38.7321 42.0398 34.3338 45.6093 29.0958 47.1769H29.0883Z" fill="#FFCA05"/>
<path d="M54 4.23959C54.003 4.80918 53.8922 5.37378 53.6737 5.90005C53.4536 6.42634 53.1318 6.90364 52.7231 7.30383C52.3159 7.70402 51.8309 8.01898 51.2979 8.23014C50.7665 8.44131 50.1961 8.54439 49.6228 8.53332C49.0494 8.54247 48.4806 8.43822 47.9476 8.22664C47.4147 8.01504 46.9297 7.70031 46.521 7.30077C46.1108 6.90125 45.786 6.42487 45.5644 5.89934C45.3413 5.37381 45.2276 4.80963 45.2261 4.23959C45.2321 3.67368 45.3518 3.11461 45.5764 2.59462C45.8009 2.07465 46.1273 1.6041 46.536 1.21005C46.9446 0.816005 47.4282 0.506287 47.9581 0.298791C48.488 0.0912952 49.0539 -0.00987196 49.6228 0.001099C50.1931 -0.0117555 50.7575 0.0882654 51.2874 0.295336C51.8174 0.502406 52.2994 0.81235 52.7081 1.20703C53.1153 1.60172 53.4386 2.07323 53.6617 2.59394C53.8833 3.11464 53.9985 3.67411 54 4.23959ZM46.3234 4.23959C46.3099 4.68149 46.3862 5.12164 46.5464 5.53371C46.7081 5.94578 46.9506 6.3213 47.262 6.63777C47.5719 6.95423 47.9446 7.20514 48.3548 7.37546C48.765 7.54578 49.2066 7.63203 49.6512 7.62901C50.0883 7.62745 50.5225 7.53844 50.9237 7.36729C51.3264 7.19612 51.6901 6.94629 51.994 6.63267C52.2964 6.31904 52.5329 5.94801 52.6901 5.54166C52.8458 5.13528 52.9177 4.70188 52.9027 4.26721C52.9252 3.82405 52.8593 3.38074 52.7051 2.96418C52.5509 2.54761 52.3129 2.16644 52.006 1.84373C51.7006 1.52103 51.3308 1.26352 50.9207 1.08681C50.512 0.910092 50.0704 0.817847 49.6228 0.81566C49.1782 0.817164 48.738 0.907855 48.3279 1.0823C47.9192 1.25674 47.5494 1.51137 47.241 1.83096C46.9341 2.15056 46.6931 2.52858 46.536 2.94241C46.3788 3.35626 46.3054 3.79743 46.3234 4.23959ZM48.9491 6.46238H47.991V2.22389C48.5299 2.12909 49.0764 2.08517 49.6228 2.09273C50.1392 2.05133 50.6557 2.1592 51.1108 2.40337C51.2455 2.5172 51.3548 2.66025 51.4267 2.82168C51.4985 2.98312 51.533 3.15873 51.527 3.33528C51.5075 3.57181 51.4102 3.79549 51.2515 3.9724C51.0913 4.1493 50.8788 4.26978 50.6452 4.31554V4.37075C50.8563 4.45658 51.0389 4.59747 51.1767 4.77853C51.3129 4.9596 51.3982 5.17409 51.4222 5.39931C51.4656 5.76879 51.5704 6.12835 51.735 6.46238H50.6662C50.503 6.1357 50.3907 5.78668 50.3324 5.42693C50.2485 4.96441 49.991 4.73662 49.4431 4.73662H48.9776L48.9491 6.46238ZM48.9491 4.0601H49.4147C49.9641 4.0601 50.4012 3.87372 50.4012 3.43883C50.4012 3.00394 50.1168 2.78993 49.491 2.78993C49.3099 2.786 49.1273 2.80455 48.9491 2.84517V4.0601Z" fill="#FFCA05"/>
</g>
<defs>
<clipPath id="clip0_45_5446">
<rect width="54.0001" height="52" fill="white"/>
</clipPath>
</defs>
<script xmlns=""/></svg>